<svg width="35" height="36" viewBox="0 0 35 36" fill="none" xmlns="http://www.w3.org/2000/svg">
<path d="M28.8627 29.9232C28.3217 29.4112 28.0588 28.7781 27.8619 28.103C27.7245 27.6319 27.6743 27.6307 27.2751 27.9071C25.7002 28.9977 24.1089 30.0636 22.4751 31.0646C21.4916 31.6672 20.4317 31.8671 19.2962 31.6444C18.9905 31.5845 18.7158 31.4536 18.4693 31.2669C17.2607 30.3517 16.0491 29.4403 14.8474 28.5159C12.9654 27.0683 11.0891 25.6132 9.21319 24.1577C7.62536 22.9257 6.0419 21.688 4.45575 20.4539C3.55625 19.754 2.67827 19.0232 1.746 18.3699C1.20942 17.9939 0.94916 17.5153 0.911757 16.9068C0.878062 16.3587 0.855418 15.807 0.95215 15.2557C1.10552 14.3815 1.56465 13.6936 2.26806 13.2015C4.72348 11.4839 7.20706 9.80658 9.66392 8.09099C10.7333 7.34427 11.8158 6.61676 12.8638 5.83728C14.232 4.8195 15.8072 4.46616 17.4958 4.60895C18.8428 4.72286 20.0564 5.18475 21.1008 6.05487C22.6477 7.34354 23.2963 8.97034 22.9306 10.972C22.9101 11.0839 22.8449 11.1937 22.9536 11.3257C23.2378 11.2067 23.525 11.0806 23.8166 10.9653C26.3549 9.96165 29.2637 10.5468 31.1256 12.4335C32.7202 14.0493 33.0122 16.4495 31.8242 18.2839C31.2966 19.0985 30.5615 19.712 29.7568 20.2271C27.104 21.9253 24.4342 23.5968 21.777 25.2882C21.0406 25.757 20.3352 26.2724 19.9368 27.0884C19.7649 27.4406 19.666 27.8189 19.7225 28.2152C19.8125 28.8464 20.2005 29.0696 20.7772 28.8001C21.3637 28.526 21.8977 28.1561 22.4415 27.8068C23.5887 27.0701 24.7326 26.3284 25.8768 25.587C25.9831 25.5182 26.0816 25.4375 26.2137 25.3403C25.7962 25.0314 25.313 24.9501 24.8786 24.7604C24.8806 24.5683 25.0435 24.5337 25.1504 24.463C25.6207 24.1517 26.109 23.8664 26.5691 23.541C26.8488 23.3432 27.1192 23.3013 27.4288 23.4213C27.5053 23.4509 27.6003 23.4521 27.6615 23.4991C28.346 24.0249 28.8762 23.6342 29.4337 23.238C30.3244 22.6051 31.2373 22.0034 32.1411 21.3889C32.2383 21.3228 32.3432 21.2332 32.4625 21.3093C33.193 21.7753 33.9191 22.2483 34.6518 22.7223C34.5486 22.9778 34.3387 23.0528 34.1726 23.1683C32.8699 24.074 31.5677 24.9805 30.2547 25.8712C29.994 26.048 29.9615 26.2061 30.048 26.5093C30.2884 27.3522 30.6124 28.1415 31.3154 28.6975C31.8028 29.0829 32.3382 29.4074 32.8508 29.7611C32.9329 29.8177 33.0582 29.8368 33.0559 29.9828C32.9651 30.1343 32.8079 30.0785 32.677 30.0846C31.9197 30.1202 31.4492 30.4989 31.2843 31.2362C31.2423 31.4242 31.1794 31.5451 30.9869 31.4102C30.2859 30.9187 29.4932 30.5584 28.8627 29.9232Z" fill="#16A34A"/>
</svg>
